Normalized EMG Linear Envelopes
nRows=247
nColumns=4

endheader
time	 med_gas_r	  soleus_r	 tib_ant_r	
3.29335	  0.001545	  0.005664	  0.001393	
3.32661	  0.003888	  0.005502	  0.001427	
3.35988	  0.005821	  0.005342	  0.001456	
3.39315	  0.007033	  0.005193	  0.001480	
3.42641	  0.007401	  0.005072	  0.001497	
3.45968	  0.007032	  0.004988	  0.001506	
3.49294	  0.006205	  0.004946	  0.001509	
3.52621	  0.005227	  0.004941	  0.001507	
3.55948	  0.004324	  0.004970	  0.001506	
3.59274	  0.003604	  0.005030	  0.001507	
3.62601	  0.003087	  0.005120	  0.001513	
3.65927	  0.002757	  0.005233	  0.001522	
3.69254	  0.002581	  0.005360	  0.001531	
3.72581	  0.002522	  0.005480	  0.001539	
3.75907	  0.002540	  0.005572	  0.001544	
3.79234	  0.002597	  0.005612	  0.001548	
3.8256	  0.002671	  0.005586	  0.001550	
3.85887	  0.002750	  0.005499	  0.001554	
3.89214	  0.002828	  0.005373	  0.001558	
3.9254	  0.002899	  0.005235	  0.001561	
3.95867	  0.002955	  0.005109	  0.001560	
3.99194	  0.002988	  0.005008	  0.001552	
4.0252	  0.002995	  0.004936	  0.001539	
4.05847	  0.002977	  0.004889	  0.001523	
4.09173	  0.002943	  0.004865	  0.001507	
4.125	  0.002903	  0.004857	  0.001494	
4.15827	  0.002866	  0.004860	  0.001489	
4.19153	  0.002836	  0.004868	  0.001493	
4.2248	  0.002811	  0.004879	  0.001506	
4.25806	  0.002790	  0.004892	  0.001525	
4.29133	  0.002774	  0.004906	  0.001545	
4.3246	  0.002761	  0.004917	  0.001561	
4.35786	  0.002754	  0.004917	  0.001568	
4.39113	  0.002752	  0.004902	  0.001562	
4.4244	  0.002753	  0.004872	  0.001544	
4.45766	  0.002760	  0.004840	  0.001518	
4.49093	  0.002777	  0.004819	  0.001490	
4.52419	  0.002806	  0.004819	  0.001471	
4.55746	  0.002849	  0.004837	  0.001473	
4.59073	  0.002902	  0.004868	  0.001506	
4.62399	  0.002961	  0.004903	  0.001580	
4.65726	  0.003019	  0.004939	  0.001704	
4.69052	  0.003064	  0.004972	  0.001888	
4.72379	  0.003088	  0.004991	  0.002129	
4.75706	  0.003083	  0.004987	  0.002397	
4.79032	  0.003051	  0.004956	  0.002639	
4.82359	  0.002998	  0.004905	  0.002794	
4.85685	  0.002939	  0.004845	  0.002834	
4.89012	  0.002890	  0.004788	  0.002780	
4.92339	  0.002861	  0.004741	  0.002692	
4.95665	  0.002863	  0.004704	  0.002630	
4.98992	  0.002896	  0.004675	  0.002627	
5.02319	  0.002954	  0.004654	  0.002679	
5.05645	  0.003026	  0.004646	  0.002743	
5.08972	  0.003095	  0.004651	  0.002748	
5.12298	  0.003141	  0.004657	  0.002585	
5.15625	  0.003146	  0.004631	  0.002109	
5.18952	  0.003096	  0.004526	  0.001144	
5.22278	  0.002989	  0.004287	 -0.000487	
5.25605	  0.002828	  0.003865	 -0.002935	
5.28931	  0.002620	  0.003233	 -0.006285	
5.32258	  0.002373	  0.002399	 -0.010489	
5.35585	  0.002098	  0.001416	 -0.015233	
5.38911	  0.001823	  0.000413	 -0.019769	
5.42238	  0.001603	 -0.000372	 -0.022764	
5.45565	  0.001524	 -0.000570	 -0.022245	
5.48891	  0.001698	  0.000334	 -0.015615	
5.52218	  0.002260	  0.002995	  0.000344	
5.55544	  0.003360	  0.008193	  0.029416	
5.58871	  0.005143	  0.016768	  0.075454	
5.62198	  0.007720	  0.029435	  0.141047	
5.65524	  0.011098	  0.046416	  0.225591	
5.68851	  0.015120	  0.067020	  0.323986	
5.72177	  0.019425	  0.089444	  0.427315	
5.75504	  0.023498	  0.111082	  0.525642	
5.78831	  0.026819	  0.129319	  0.611266	
5.82157	  0.029056	  0.142411	  0.680316	
5.85484	  0.030191	  0.149987	  0.732059	
5.8881	  0.030495	  0.152956	  0.767298	
5.92137	  0.030381	  0.152975	  0.787637	
5.95464	  0.030216	  0.151807	  0.795943	
5.9879	  0.030209	  0.150836	  0.796668	
6.02117	  0.030391	  0.150865	  0.794783	
6.05444	  0.030673	  0.152171	  0.793610	
6.0877	  0.030919	  0.154619	  0.793246	
6.12097	  0.031008	  0.157703	  0.791047	
6.15423	  0.030872	  0.160559	  0.784030	
6.1875	  0.030507	  0.162174	  0.771403	
6.22077	  0.029963	  0.161816	  0.755255	
6.25403	  0.029315	  0.159372	  0.739114	
6.2873	  0.028627	  0.155297	  0.725960	
6.32056	  0.027929	  0.150259	  0.717458	
6.35383	  0.027232	  0.144848	  0.714450	
6.3871	  0.026558	  0.139521	  0.717390	
6.42036	  0.025968	  0.134610	  0.725813	
6.45363	  0.025533	  0.130228	  0.737441	
6.4869	  0.025280	  0.126159	  0.748132	
6.52016	  0.025159	  0.121967	  0.753134	
6.55343	  0.025074	  0.117341	  0.748987	
6.58669	  0.024948	  0.112394	  0.734946	
6.61996	  0.024773	  0.107702	  0.713114	
6.65323	  0.024612	  0.104044	  0.687326	
6.68649	  0.024532	  0.102013	  0.661588	
6.71976	  0.024535	  0.101755	  0.639000	
6.75302	  0.024559	  0.102998	  0.621537	
6.78629	  0.024529	  0.105362	  0.610314	
6.81956	  0.024429	  0.108673	  0.605751	
6.85282	  0.024330	  0.112960	  0.607400	
6.88609	  0.024340	  0.118120	  0.613732	
6.91935	  0.024537	  0.123631	  0.622394	
6.95262	  0.024919	  0.128695	  0.631073	
6.98589	  0.025414	  0.132729	  0.638464	
7.01915	  0.025927	  0.135758	  0.644629	
7.05242	  0.026379	  0.138303	  0.650471	
7.08569	  0.026710	  0.140872	  0.656803	
7.11895	  0.026862	  0.143512	  0.663717	
7.15222	  0.026779	  0.145775	  0.670562	
7.18548	  0.026434	  0.147110	  0.676330	
7.21875	  0.025878	  0.147353	  0.680165	
7.25202	  0.025262	  0.146972	  0.681768	
7.28528	  0.024804	  0.146868	  0.681522	
7.31855	  0.024715	  0.147849	  0.680179	
7.35181	  0.025106	  0.150072	  0.678245	
7.38508	  0.025929	  0.152810	  0.675559	
7.41835	  0.026986	  0.154711	  0.671579	
7.45161	  0.028010	  0.154434	  0.666305	
7.48488	  0.028789	  0.151324	  0.661075	
7.51815	  0.029249	  0.145740	  0.658369	
7.55141	  0.029471	  0.138906	  0.660638	
7.58468	  0.029619	  0.132408	  0.668999	
7.61794	  0.029832	  0.127641	  0.682754	
7.65121	  0.030166	  0.125421	  0.699913	
7.68448	  0.030593	  0.125839	  0.718195	
7.71774	  0.031048	  0.128319	  0.735783	
7.75101	  0.031460	  0.131824	  0.751406	
7.78427	  0.031745	  0.135144	  0.763850	
7.81754	  0.031789	  0.137232	  0.771612	
7.85081	  0.031459	  0.137485	  0.773317	
7.88407	  0.030658	  0.135923	  0.768738	
7.91734	  0.029391	  0.133171	  0.759376	
7.9506	  0.027784	  0.130215	  0.747899	
7.98387	  0.026040	  0.127980	  0.736761	
8.01714	  0.024376	  0.126899	  0.727024	
8.0504	  0.022956	  0.126742	  0.718095	
8.08367	  0.021891	  0.126852	  0.708483	
8.11694	  0.021243	  0.126662	  0.697060	
8.1502	  0.021033	  0.126133	  0.684063	
8.18347	  0.021236	  0.125818	  0.671207	
8.21673	  0.021776	  0.126532	  0.660887	
8.25	  0.022550	  0.128847	  0.655086	
8.28327	  0.023466	  0.132725	  0.654618	
8.31653	  0.024462	  0.137461	  0.658945	
8.3498	  0.025491	  0.141989	  0.666499	
8.38306	  0.026503	  0.145378	  0.675424	
8.41633	  0.027431	  0.147245	  0.684576	
8.4496	  0.028214	  0.147810	  0.694150	
8.48286	  0.028816	  0.147549	  0.705324	
8.51613	  0.029235	  0.146741	  0.718883	
8.5494	  0.029488	  0.145255	  0.733812	
8.58266	  0.029601	  0.142756	  0.747119	
8.61593	  0.029607	  0.139117	  0.755280	
8.64919	  0.029532	  0.134617	  0.756228	
8.68246	  0.029378	  0.129785	  0.750176	
8.71573	  0.029109	  0.125085	  0.738735	
8.74899	  0.028688	  0.120816	  0.723473	
8.78226	  0.028137	  0.117302	  0.705449	
8.81552	  0.027570	  0.115060	  0.685791	
8.84879	  0.027146	  0.114678	  0.666079	
8.88206	  0.026974	  0.116469	  0.647766	
8.91532	  0.027063	  0.120170	  0.631354	
8.94859	  0.027333	  0.124933	  0.616408	
8.98185	  0.027678	  0.129583	  0.602473	
9.01512	  0.028002	  0.133045	  0.589864	
9.04839	  0.028222	  0.134731	  0.579510	
9.08165	  0.028280	  0.134707	  0.572135	
9.11492	  0.028169	  0.133556	  0.567622	
9.14819	  0.027939	  0.132022	  0.565099	
9.18145	  0.027666	  0.130712	  0.563554	
9.21472	  0.027402	  0.130012	  0.562434	
9.24798	  0.027161	  0.130198	  0.561765	
9.28125	  0.026958	  0.131505	  0.561756	
9.31452	  0.026847	  0.134036	  0.562151	
9.34778	  0.026923	  0.137586	  0.561839	
9.38105	  0.027263	  0.141596	  0.559193	
9.41431	  0.027873	  0.145342	  0.553158	
9.44758	  0.028671	  0.148215	  0.544491	
9.48085	  0.029521	  0.149891	  0.536193	
9.51411	  0.030282	  0.150320	  0.532503	
9.54738	  0.030845	  0.149674	  0.536770	
9.58065	  0.031154	  0.148358	  0.549463	
9.61391	  0.031209	  0.147013	  0.567794	
9.64718	  0.031062	  0.146365	  0.587364	
9.68044	  0.030793	  0.146952	  0.604674	
9.71371	  0.030478	  0.148864	  0.618598	
9.74698	  0.030147	  0.151678	  0.629867	
9.78024	  0.029770	  0.154588	  0.639443	
9.81351	  0.029297	  0.156702	  0.647436	
9.84677	  0.028717	  0.157372	  0.653358	
9.88004	  0.028099	  0.156435	  0.657064	
9.91331	  0.027561	  0.154207	  0.659247	
9.94657	  0.027202	  0.151272	  0.661040	
9.97984	  0.027048	  0.148236	  0.663220	
10.0131	  0.027060	  0.145641	  0.665777	
10.0464	  0.027174	  0.143978	  0.668172	
10.0796	  0.027340	  0.143652	  0.670018	
10.1129	  0.027533	  0.144874	  0.671633	
10.1462	  0.027747	  0.147610	  0.674064	
10.1794	  0.027984	  0.151620	  0.678418	
10.2127	  0.028240	  0.156456	  0.684687	
10.246	  0.028465	  0.161375	  0.690640	
10.2792	  0.028546	  0.165335	  0.691631	
10.3125	  0.028320	  0.167217	  0.681923	
10.3458	  0.027632	  0.166083	  0.656983	
10.379	  0.026385	  0.161257	  0.615282	
10.4123	  0.024555	  0.152256	  0.558383	
10.4456	  0.022182	  0.138870	  0.489594	
10.4788	  0.019370	  0.121463	  0.412661	
10.5121	  0.016290	  0.101241	  0.331583	
10.5454	  0.013173	  0.080131	  0.251104	
10.5786	  0.010267	  0.060269	  0.176652	
10.6119	  0.007769	  0.043388	  0.113159	
10.6452	  0.005782	  0.030414	  0.063569	
10.6784	  0.004310	  0.021391	  0.028202	
10.7117	  0.003293	  0.015679	  0.005315	
10.745	  0.002646	  0.012279	 -0.007771	
10.7782	  0.002278	  0.010202	 -0.013765	
10.8115	  0.002107	  0.008727	 -0.015016	
10.8448	  0.002062	  0.007492	 -0.013438	
10.878	  0.002085	  0.006409	 -0.010504	
10.9113	  0.002146	  0.005507	 -0.007236	
10.9446	  0.002228	  0.004817	 -0.004236	
10.9778	  0.002327	  0.004337	 -0.001782	
11.0111	  0.002435	  0.004040	  0.000054	
11.0444	  0.002536	  0.003891	  0.001308	
11.0776	  0.002617	  0.003853	  0.002070	
11.1109	  0.002670	  0.003884	  0.002453	
11.1442	  0.002699	  0.003948	  0.002570	
11.1774	  0.002713	  0.004019	  0.002519	
11.2107	  0.002716	  0.004082	  0.002377	
11.244	  0.002709	  0.004135	  0.002198	
11.2772	  0.002684	  0.004176	  0.002016	
11.3105	  0.002643	  0.004204	  0.001850	
11.3437	  0.002590	  0.004220	  0.001710	
11.377	  0.002537	  0.004223	  0.001598	
11.4103	  0.002493	  0.004213	  0.001515	
11.4435	  0.002464	  0.004194	  0.001458	
11.4768	  0.002446	  0.004169	  0.001420	
